<?xml version="1.0" encoding="UTF-8" standalone="no"?>
<svg
   version="1.1"
   viewBox="0 0 32 32"
   id="svg4"
   sodipodi:docname="deepin-launcher.svg"
   inkscape:version="1.3.2 (091e20e, 2023-11-25)"
   xmlns:inkscape="http://www.inkscape.org/namespaces/inkscape"
   xmlns:sodipodi="http://sodipodi.sourceforge.net/DTD/sodipodi-0.dtd"
   xmlns="http://www.w3.org/2000/svg"
   xmlns:svg="http://www.w3.org/2000/svg">
  <defs
     id="defs4" />
  <sodipodi:namedview
     id="namedview4"
     pagecolor="#ffffff"
     bordercolor="#000000"
     borderopacity="0.25"
     inkscape:showpageshadow="2"
     inkscape:pageopacity="0.0"
     inkscape:pagecheckerboard="0"
     inkscape:deskcolor="#d1d1d1"
     inkscape:zoom="17.721864"
     inkscape:cx="14.896853"
     inkscape:cy="13.091174"
     inkscape:window-width="1920"
     inkscape:window-height="1002"
     inkscape:window-x="0"
     inkscape:window-y="0"
     inkscape:window-maximized="1"
     inkscape:current-layer="svg4" />
  <rect
     x="1"
     y="1"
     width="30"
     height="30"
     rx="8"
     ry="8"
     fill="#2db0ff"
     id="rect1"
     style="display:inline;fill:#f2f2f2;fill-opacity:1;opacity:0.32" />
  <g
     fill="#ffffff"
     stroke-width="1.0001"
     id="g4"
     transform="matrix(0.82310898,0,0,0.82310898,2.8302563,2.8302563)">
    <rect
       x="5"
       y="5"
       width="10"
       height="10"
       rx="4"
       ry="4"
       id="rect2"
       style="fill:#f2f2f2;fill-opacity:1" />
    <path
       d="m 9,17 c -2.216,0 -4,1.784 -4,4 v 2 c 0,2.216 1.784,4 4,4 h 2 c 2.216,0 4,-1.784 4,-4 v -2 c 0,-2.216 -1.784,-4 -4,-4 z"
       opacity="0.45"
       id="path2"
       sodipodi:nodetypes="sssssssss"
       style="fill:#f2f2f2;fill-opacity:1;opacity:1" />
    <path
       d="m 21,17 c -2.216,0 -4,1.784 -4,4 v 2 c 0,2.216 1.784,4 4,4 h 2 c 2.216,0 4,-1.784 4,-4 v -2 c 0,-2.216 -1.784,-4 -4,-4 z"
       opacity="0.45"
       id="path3"
       sodipodi:nodetypes="sssssssss"
       style="fill:#f2f2f2;fill-opacity:1;opacity:1" />
    <path
       d="m 21,5 c -2.216,0 -4,1.784 -4,4 v 2 c 0,2.216 1.784,4 4,4 h 2 c 2.216,0 4,-1.784 4,-4 V 9 C 27,6.784 25.216,5 23,5 Z"
       opacity="0.45"
       id="path4"
       sodipodi:nodetypes="sssssssss"
       style="fill:#f2f2f2;fill-opacity:1;opacity:1" />
  </g>
</svg>
